<svg width="64" height="64" viewBox="0 0 64 64" xmlns="http://www.w3.org/2000/svg">
  <defs>
    <linearGradient id="grad1" x1="0%" y1="0%" x2="100%" y2="100%">
      <stop offset="0%" style="stop-color:#667eea;stop-opacity:1" />
      <stop offset="100%" style="stop-color:#764ba2;stop-opacity:1" />
    </linearGradient>
    <linearGradient id="grad2" x1="0%" y1="0%" x2="100%" y2="100%">
      <stop offset="0%" style="stop-color:#f093fb;stop-opacity:1" />
      <stop offset="100%" style="stop-color:#f5576c;stop-opacity:1" />
    </linearGradient>
  </defs>
  
  <!-- Background circle -->
  <circle cx="32" cy="32" r="30" fill="url(#grad1)" stroke="url(#grad2)" stroke-width="2"/>
  
  <!-- Letter M stylized as circuit board -->
  <path d="M16 44 L16 20 L24 32 L32 20 L40 32 L48 20 L48 44" 
        fill="none" stroke="white" stroke-width="3" stroke-linecap="round" stroke-linejoin="round"/>
  
  <!-- Circuit connections -->
  <circle cx="24" cy="32" r="2" fill="white"/>
  <circle cx="32" cy="20" r="2" fill="white"/>
  <circle cx="40" cy="32" r="2" fill="white"/>
  
  <!-- Tech elements -->
  <rect x="20" y="36" width="8" height="2" fill="white" rx="1"/>
  <rect x="36" y="36" width="8" height="2" fill="white" rx="1"/>
  
  <!-- Binary dots -->
  <circle cx="18" cy="48" r="1" fill="white" opacity="0.7"/>
  <circle cx="22" cy="48" r="1" fill="white" opacity="0.5"/>
  <circle cx="26" cy="48" r="1" fill="white" opacity="0.8"/>
  <circle cx="30" cy="48" r="1" fill="white" opacity="0.3"/>
  <circle cx="34" cy="48" r="1" fill="white" opacity="0.6"/>
  <circle cx="38" cy="48" r="1" fill="white" opacity="0.4"/>
  <circle cx="42" cy="48" r="1" fill="white" opacity="0.7"/>
  <circle cx="46" cy="48" r="1" fill="white" opacity="0.5"/>
</svg>
